<svg width="100" height="100" viewBox="0 0 100 100" fill="none" xmlns="http://www.w3.org/2000/svg">
<path d="M88.7988 33.0859C88.2195 32.5025 87.5302 32.0398 86.7709 31.7247C86.0115 31.4095 85.1972 31.2482 84.375 31.25H71.875V28.125C71.875 22.3234 69.5703 16.7594 65.468 12.657C61.3656 8.55468 55.8016 6.25 50 6.25C44.1984 6.25 38.6344 8.55468 34.532 12.657C30.4297 16.7594 28.125 22.3234 28.125 28.125V31.25H15.625C13.9674 31.25 12.3777 31.9085 11.2056 33.0806C10.0335 34.2527 9.375 35.8424 9.375 37.5V79.6875C9.375 87.3047 15.8203 93.75 23.4375 93.75H76.5625C80.247 93.7512 83.7858 92.3106 86.4219 89.7363C87.7485 88.4707 88.8049 86.9495 89.5273 85.2643C90.2497 83.5792 90.6231 81.7651 90.625 79.9316V37.5C90.6275 36.6801 90.4675 35.8677 90.154 35.1101C89.8405 34.3524 89.3799 33.6644 88.7988 33.0859ZM34.375 28.125C34.375 23.981 36.0212 20.0067 38.9515 17.0765C41.8817 14.1462 45.856 12.5 50 12.5C54.144 12.5 58.1183 14.1462 61.0485 17.0765C63.9788 20.0067 65.625 23.981 65.625 28.125V31.25H34.375V28.125Z" fill="#1F9EE4"/>
</svg>
