<svg width="31" height="31" viewBox="0 0 31 31" fill="none" xmlns="http://www.w3.org/2000/svg">
<path fill-rule="evenodd" clip-rule="evenodd" d="M24.745 5.80035C23.5316 4.58633 22.09 3.62431 20.5033 2.96966C18.9166 2.31502 17.216 1.98068 15.4995 1.9859C8.29602 1.9859 2.43196 7.82067 2.42903 14.9937C2.42584 17.2778 3.02791 19.5219 4.17395 21.4976L2.31946 28.2359L9.24817 26.4271C11.1661 27.4661 13.313 28.0099 15.4943 28.0091H15.4995C22.7025 28.0091 28.5659 22.1738 28.5695 15.0013C28.5738 13.2907 28.2379 11.5963 27.5814 10.0167C26.9248 8.43712 25.9607 7.00387 24.745 5.80035ZM15.4995 25.8136H15.4948C13.5503 25.8142 11.6412 25.2938 9.96594 24.3066L9.56926 24.0722L5.45774 25.1457L6.5552 21.156L6.2968 20.7459C5.20953 19.0245 4.63347 17.0297 4.63567 14.9937C4.63567 9.03297 9.51126 4.18317 15.5036 4.18317C18.3782 4.17803 21.1372 5.31492 23.1736 7.34378C25.2101 9.37264 26.3572 12.1273 26.3628 15.0019C26.3605 20.9632 21.4872 25.8136 15.4995 25.8136ZM21.4579 17.7166C21.1316 17.5537 19.5243 16.7673 19.2267 16.6589C18.929 16.5505 18.7093 16.4961 18.4919 16.8218C18.2745 17.1476 17.6482 17.8765 17.4577 18.0963C17.2673 18.316 17.0769 18.34 16.7505 18.1771C16.4241 18.0142 15.3712 17.6714 14.1238 16.564C13.1529 15.7021 12.4978 14.638 12.3073 14.3129C12.1169 13.9877 12.2868 13.8113 12.4503 13.6496C12.5974 13.5037 12.7767 13.2699 12.9402 13.08C13.1036 12.8902 13.1581 12.7543 13.2665 12.5375C13.3749 12.3207 13.321 12.1308 13.2396 11.9685C13.1581 11.8062 12.5048 10.206 12.2329 9.55504C11.9675 8.92106 11.6986 9.00719 11.4982 8.99723C11.3077 8.98785 11.088 8.98551 10.8718 8.98551C10.7065 8.98981 10.5439 9.02814 10.3941 9.09811C10.2443 9.16807 10.1105 9.26817 10.0011 9.39215C9.70168 9.71793 8.85793 10.5054 8.85793 12.1039C8.85793 13.7023 10.0298 15.2492 10.1915 15.466C10.3532 15.6828 12.4943 18.9658 15.7702 20.3738C16.3786 20.6343 17.0001 20.8627 17.6323 21.0582C18.4146 21.3054 19.1265 21.2709 19.689 21.1871C20.3165 21.0939 21.6226 20.4007 21.8939 19.6414C22.1652 18.882 22.1657 18.2316 22.0843 18.0963C22.0029 17.9609 21.7849 17.8789 21.4579 17.7166Z" fill="black"/>
</svg>
