<svg width="31" height="31" viewBox="0 0 31 31" fill="none" xmlns="http://www.w3.org/2000/svg">
<path d="M15.7742 2.4165C8.52612 2.4165 2.64917 8.4458 2.64917 15.8755C2.64917 21.8228 6.41089 26.8618 11.6257 28.6431C11.6989 28.659 11.7735 28.6668 11.8484 28.6665C12.3347 28.6665 12.5222 28.3091 12.5222 27.9985C12.5222 27.6763 12.5105 26.8325 12.5046 25.7075C12.0705 25.8093 11.6263 25.8624 11.1804 25.8657C8.65503 25.8657 8.08081 23.9028 8.08081 23.9028C7.48315 22.3501 6.62183 21.9341 6.62183 21.9341C5.47925 21.1313 6.61597 21.1079 6.70386 21.1079H6.70972C8.02808 21.2251 8.71948 22.5024 8.71948 22.5024C9.37573 23.6509 10.2546 23.9731 11.0398 23.9731C11.559 23.9628 12.0701 23.843 12.5398 23.6216C12.657 22.7544 12.9968 22.1626 13.3718 21.8228C10.4597 21.4829 7.39526 20.3286 7.39526 15.1724C7.39526 13.7017 7.90503 12.5005 8.74292 11.563C8.60815 11.2231 8.15698 9.85205 8.87183 8.00049C8.96771 7.97754 9.06626 7.96769 9.16479 7.97119C9.6394 7.97119 10.7117 8.15283 12.4812 9.3833C14.6313 8.78173 16.9053 8.78173 19.0554 9.3833C20.825 8.15283 21.8972 7.97119 22.3718 7.97119C22.4704 7.96769 22.5689 7.97754 22.6648 8.00049C23.3796 9.85205 22.9285 11.2231 22.7937 11.563C23.6316 12.5063 24.1414 13.7075 24.1414 15.1724C24.1414 20.3403 21.071 21.4771 18.1472 21.811C18.616 22.2271 19.0378 23.0474 19.0378 24.3013C19.0378 26.1001 19.0203 27.5532 19.0203 27.9927C19.0203 28.3091 19.2019 28.6665 19.6882 28.6665C19.767 28.6668 19.8455 28.659 19.9226 28.6431C25.1433 26.8618 28.8992 21.8169 28.8992 15.8755C28.8992 8.4458 23.0222 2.4165 15.7742 2.4165Z" fill="black"/>
</svg>
